<svg class="canvas" viewBox="0 0 1920 1080" preserveAspectRatio="xMaxYMid slice" xmlns="http://www.w3.org/2000/svg" version="1.1" xmlns:xlink="http://www.w3.org/1999/xlink" xmlns:svgjs="http://svgjs.com/svgjs"><rect width="1920" height="1080" fill="hsl(272, 65%, 15%)" data-darkreader-inline-fill="" style="--darkreader-inline-fill:#200a32;"></rect><defs><linearGradient x1="0.5" y1="0" x2="0" y2="1" id="SvgjsLinearGradient1091"><stop stop-color="#35288a" offset="0" data-darkreader-inline-stopcolor="" style="--darkreader-inline-stopcolor:#2a206e;"></stop><stop stop-color="#140612" offset="0.1" data-darkreader-inline-stopcolor="" style="--darkreader-inline-stopcolor:#10050e;"></stop></linearGradient><linearGradient x1="0.5" y1="0" x2="0" y2="1" id="SvgjsLinearGradient1092"><stop stop-color="#282f8a" offset="0" data-darkreader-inline-stopcolor="" style="--darkreader-inline-stopcolor:#20266e;"></stop><stop stop-color="#130614" offset="0.22857142857142856" data-darkreader-inline-stopcolor="" style="--darkreader-inline-stopcolor:#0f0510;"></stop></linearGradient><linearGradient x1="0.5" y1="0" x2="0" y2="1" id="SvgjsLinearGradient1093"><stop stop-color="#35288a" offset="0" data-darkreader-inline-stopcolor="" style="--darkreader-inline-stopcolor:#2a206e;"></stop><stop stop-color="#140612" offset="0.3571428571428571" data-darkreader-inline-stopcolor="" style="--darkreader-inline-stopcolor:#10050e;"></stop></linearGradient><linearGradient x1="0.5" y1="0" x2="0" y2="1" id="SvgjsLinearGradient1094"><stop stop-color="#c0cdf2" offset="0" data-darkreader-inline-stopcolor="" style="--darkreader-inline-stopcolor:#2d3133;"></stop><stop stop-color="#af42d7" offset="0.48571428571428565" data-darkreader-inline-stopcolor="" style="--darkreader-inline-stopcolor:#7b219b;"></stop></linearGradient><linearGradient x1="0.5" y1="0" x2="0" y2="1" id="SvgjsLinearGradient1095"><stop stop-color="#c7c0f2" offset="0" data-darkreader-inline-stopcolor="" style="--darkreader-inline-stopcolor:#2d3133;"></stop><stop stop-color="#d742c3" offset="0.6142857142857142" data-darkreader-inline-stopcolor="" style="--darkreader-inline-stopcolor:#9b218b;"></stop></linearGradient><linearGradient x1="0.5" y1="0" x2="0" y2="1" id="SvgjsLinearGradient1096"><stop stop-color="#c0c3f2" offset="0" data-darkreader-inline-stopcolor="" style="--darkreader-inline-stopcolor:#2d3133;"></stop><stop stop-color="#cd42d7" offset="0.7428571428571429" data-darkreader-inline-stopcolor="" style="--darkreader-inline-stopcolor:#93219b;"></stop></linearGradient><linearGradient x1="0.5" y1="0" x2="0" y2="1" id="SvgjsLinearGradient1097"><stop stop-color="#c0c3f2" offset="0" data-darkreader-inline-stopcolor="" style="--darkreader-inline-stopcolor:#2d3133;"></stop><stop stop-color="#cd42d7" offset="0.8714285714285713" data-darkreader-inline-stopcolor="" style="--darkreader-inline-stopcolor:#93219b;"></stop></linearGradient></defs><path d="M0,-573.0659698537388C81.92989927289638,-554.109691987029,336.78409236493087,-503.06554112142476,491.5793956373783,-459.32830265348014C646.3746989098257,-415.5910641855355,762.1088224408652,-355.9269287416616,928.7718196346848,-310.6425390460709C1095.4348168285044,-265.35814935048023,1326.3526820727432,-233.88472601199143,1491.5573788002957,-187.62196447993608C1656.7620755278483,-141.35920294788073,1848.592896466716,-58.825302291438305,1920,-33.06596985373875L 1920 1080 L 0 1080 Z" fill="url(#SvgjsLinearGradient1091)"></path><path d="M0,-391.2144655929073C50.20617202385347,-371.6332673914266,190.00037300441812,-302.38147770707207,301.2370321431208,-273.7272763840232C412.4736912818235,-245.07307506097433,559.9749502385741,-251.59464722848963,667.4199548322163,-219.28925765461415C774.8649594258584,-186.98386808073866,847.5056817169826,-118.38234383852986,945.9070597049736,-79.89493894077027C1044.3084376929646,-41.407534043010685,1152.4256300437478,-15.646989657700356,1257.8282227601621,11.635171731943387C1363.2308154765765,38.917333121587134,1467.9606531301533,58.55868323694823,1578.3226160034596,83.79802939709217C1688.684578876766,109.0373755572361,1863.05376933391,149.85904547685453,1920,163.071248692807L 1920 1080 L 0 1080 Z" fill="url(#SvgjsLinearGradient1092)"></path><path d="M0,-315.3424172351979C48.56423761545781,-306.5717134007405,182.92019272870033,-285.9647462316804,291.3854256927469,-262.7181942284536C399.8506586567934,-239.47164222522684,530.5157020383604,-212.43787166914086,650.7913977842793,-175.86310521583724C771.0670935301982,-139.2883387625336,910.4335560860142,-73.92756487940953,1013.0396001682602,-43.26959550863188C1115.6456442505064,-12.611626137854234,1161.415016484474,-25.484087228936026,1266.4276622777559,8.084711008828634C1371.4403080710376,41.653509246593295,1534.1867519742434,117.28581053005576,1643.1154749279508,158.1431939179561C1752.0441978816582,199.00057730585644,1873.8525791546585,237.3813750998516,1920,253.2290113362307L 1920 1080 L 0 1080 Z" fill="url(#SvgjsLinearGradient1093)"></path><path d="M0,-140.7469097602375C52.345125491229,-125.76093259100936,227.27561228416312,-73.33978833975996,314.070752947374,-50.831046744868765C400.86589361058486,-28.32230514997757,432.02137185889364,-34.7573144126257,520.7708439792654,-5.6944601908903C609.5203160996371,23.368394030845106,751.6651451742421,90.81335741911663,846.5675856696041,123.54607858554368C941.4700261649662,156.27879975197072,1008.8155310601323,167.63169408512695,1090.1854869514375,190.70186680767202C1171.5554428427427,213.77203953021709,1251.0687636879093,242.1659312611924,1334.787321017435,261.96711492081414C1418.5058783469608,281.7682985804359,1494.9613844314972,279.4851157360539,1592.4968309285914,309.5089687654024C1690.0322774256856,339.53282179475093,1865.4161384880986,420.01002237498824,1920,442.1102330969054L 1920 1080 L 0 1080 Z" fill="url(#SvgjsLinearGradient1094)"></path><path d="M0,-4.8683510398291645C45.94971878295713,12.395238648355555,203.2881071187385,81.19797070390277,275.6983126977428,98.71318708927916C348.1085182767471,116.22840347465555,361.45543177357956,73.5376547029808,434.4612334740256,100.22294727242917C507.4670351744717,126.90823984187753,634.9535383489067,234.76479655610544,713.7331229004192,258.8249425059694C792.5127074519316,282.8850884558333,818.7204997132689,227.94080480588042,907.1387407831005,244.58382297161273C995.5569818529322,261.22684113734505,1152.2929267579198,329.1595247998052,1244.2425693194089,358.6830515003632C1336.192211880898,388.20657820092123,1390.5472905485512,398.9600594035998,1458.836596152035,421.7249831749608C1527.125901755519,444.4899069463218,1577.1178356323176,466.8476736405179,1653.9784029403118,495.2725941285291C1730.838970248306,523.6975146165403,1875.6630671567186,576.1075207739449,1920,592.2745061030281L 1920 1080 L 0 1080 Z" fill="url(#SvgjsLinearGradient1095)"></path><path d="M0,67.27286206166254C66.66085480310551,83.38767463872111,271.6630913371897,118.31639444767234,399.96512881863305,163.96173752401398C528.2671663000764,209.60708060035563,640.900800683774,298.72264934714957,769.8122248886601,341.14492051971234C898.7236490935462,383.5671916922751,1047.7154572541922,379.5641292556501,1173.4336740479498,418.49536455939057C1299.1518908417074,457.42659986313106,1399.693804659198,531.3646541870148,1524.1215256512062,574.7323323421554C1648.5492466432145,618.1000104972959,1854.020254275201,661.3732499655542,1920,678.701433490234L 1920 1080 L 0 1080 Z" fill="url(#SvgjsLinearGradient1096)"></path><path d="M0,205.57314537605194C71.28462291405069,221.1590944901228,294.49174474565007,255.24758906132084,427.7077374843041,299.08884006047725C560.9237302229582,342.93009105963364,674.4583348421112,420.0559326184623,799.2959564319243,468.6206513709904C924.1335780217374,517.1853701235185,1049.2164662732673,554.1859765087917,1176.7334670231826,590.477152575646C1304.2504677730979,626.7683286425003,1440.5202054352792,646.2326613530008,1564.3979609314154,686.3677077721161C1688.2757164275515,726.5027541912314,1860.7329934885693,807.134143870634,1920,831.2874310903377L 1920 1080 L 0 1080 Z" fill="url(#SvgjsLinearGradient1097)"></path></svg>